<?xml version="1.0" encoding="UTF-8"?>
<!-- Do not edit this file with editors other than draw.io -->
<!DOCTYPE svg PUBLIC "-//W3C//DTD SVG 1.1//EN" "http://www.w3.org/Graphics/SVG/1.1/DTD/svg11.dtd">
<svg xmlns="http://www.w3.org/2000/svg" xmlns:xlink="http://www.w3.org/1999/xlink" version="1.1" width="462px" height="317px" viewBox="-0.5 -0.5 462 317" content="&lt;mxfile host=&quot;app.diagrams.net&quot; modified=&quot;2024-04-29T02:53:35.662Z&quot; agent=&quot;Mozilla/5.0 (Macintosh; Intel Mac OS X 10_15_7) AppleWebKit/537.36 (KHTML, like Gecko) Chrome/123.0.0.0 Safari/537.36&quot; version=&quot;24.2.5&quot; etag=&quot;wze6toTWiTeZDdFDfbBp&quot; scale=&quot;1&quot; border=&quot;0&quot;&gt;&#10;  &lt;diagram name=&quot;Page-1&quot; id=&quot;V6qletcyMnasx_JX09Fl&quot;&gt;&#10;    &lt;mxGraphModel dx=&quot;1434&quot; dy=&quot;761&quot; grid=&quot;1&quot; gridSize=&quot;10&quot; guides=&quot;1&quot; tooltips=&quot;1&quot; connect=&quot;1&quot; arrows=&quot;1&quot; fold=&quot;1&quot; page=&quot;1&quot; pageScale=&quot;1&quot; pageWidth=&quot;850&quot; pageHeight=&quot;1100&quot; math=&quot;0&quot; shadow=&quot;0&quot;&gt;&#10;      &lt;root&gt;&#10;        &lt;mxCell id=&quot;0&quot; /&gt;&#10;        &lt;mxCell id=&quot;1&quot; parent=&quot;0&quot; /&gt;&#10;        &lt;mxCell id=&quot;2&quot; value=&quot;&quot; style=&quot;html=1;verticalLabelPosition=bottom;verticalAlign=top;outlineConnect=0;shadow=0;dashed=0;shape=mxgraph.rack.hpe_aruba.switches.j9772a_2530_48g_poeplus_switch;&quot; vertex=&quot;1&quot; parent=&quot;1&quot;&gt;&#10;          &lt;mxGeometry x=&quot;350&quot; y=&quot;380&quot; width=&quot;142&quot; height=&quot;15&quot; as=&quot;geometry&quot; /&gt;&#10;        &lt;/mxCell&gt;&#10;        &lt;mxCell id=&quot;3&quot; value=&quot;&quot; style=&quot;fontColor=#0066CC;verticalAlign=top;verticalLabelPosition=bottom;labelPosition=center;align=center;html=1;outlineConnect=0;fillColor=#CCCCCC;strokeColor=#6881B3;gradientColor=none;gradientDirection=north;strokeWidth=2;shape=mxgraph.networks.monitor;&quot; vertex=&quot;1&quot; parent=&quot;1&quot;&gt;&#10;          &lt;mxGeometry x=&quot;381&quot; y=&quot;230&quot; width=&quot;80&quot; height=&quot;65&quot; as=&quot;geometry&quot; /&gt;&#10;        &lt;/mxCell&gt;&#10;        &lt;mxCell id=&quot;4&quot; value=&quot;&quot; style=&quot;fontColor=#0066CC;verticalAlign=top;verticalLabelPosition=bottom;labelPosition=center;align=center;html=1;outlineConnect=0;fillColor=#CCCCCC;strokeColor=#6881B3;gradientColor=none;gradientDirection=north;strokeWidth=2;shape=mxgraph.networks.monitor;&quot; vertex=&quot;1&quot; parent=&quot;1&quot;&gt;&#10;          &lt;mxGeometry x=&quot;570&quot; y=&quot;355&quot; width=&quot;80&quot; height=&quot;65&quot; as=&quot;geometry&quot; /&gt;&#10;        &lt;/mxCell&gt;&#10;        &lt;mxCell id=&quot;5&quot; value=&quot;&quot; style=&quot;fontColor=#0066CC;verticalAlign=top;verticalLabelPosition=bottom;labelPosition=center;align=center;html=1;outlineConnect=0;fillColor=#CCCCCC;strokeColor=#6881B3;gradientColor=none;gradientDirection=north;strokeWidth=2;shape=mxgraph.networks.monitor;&quot; vertex=&quot;1&quot; parent=&quot;1&quot;&gt;&#10;          &lt;mxGeometry x=&quot;190&quot; y=&quot;355&quot; width=&quot;80&quot; height=&quot;65&quot; as=&quot;geometry&quot; /&gt;&#10;        &lt;/mxCell&gt;&#10;        &lt;mxCell id=&quot;6&quot; value=&quot;&quot; style=&quot;fontColor=#0066CC;verticalAlign=top;verticalLabelPosition=bottom;labelPosition=center;align=center;html=1;outlineConnect=0;fillColor=#CCCCCC;strokeColor=#6881B3;gradientColor=none;gradientDirection=north;strokeWidth=2;shape=mxgraph.networks.monitor;&quot; vertex=&quot;1&quot; parent=&quot;1&quot;&gt;&#10;          &lt;mxGeometry x=&quot;385&quot; y=&quot;480&quot; width=&quot;80&quot; height=&quot;65&quot; as=&quot;geometry&quot; /&gt;&#10;        &lt;/mxCell&gt;&#10;        &lt;mxCell id=&quot;7&quot; value=&quot;&quot; style=&quot;endArrow=classic;html=1;rounded=0;exitX=0.5;exitY=1;exitDx=0;exitDy=0;exitPerimeter=0;fillColor=#dae8fc;strokeColor=#6c8ebf;strokeWidth=3;&quot; edge=&quot;1&quot; source=&quot;3&quot; target=&quot;2&quot; parent=&quot;1&quot;&gt;&#10;          &lt;mxGeometry width=&quot;50&quot; height=&quot;50&quot; relative=&quot;1&quot; as=&quot;geometry&quot;&gt;&#10;            &lt;mxPoint x=&quot;400&quot; y=&quot;420&quot; as=&quot;sourcePoint&quot; /&gt;&#10;            &lt;mxPoint x=&quot;450&quot; y=&quot;370&quot; as=&quot;targetPoint&quot; /&gt;&#10;          &lt;/mxGeometry&gt;&#10;        &lt;/mxCell&gt;&#10;        &lt;mxCell id=&quot;8&quot; value=&quot;&quot; style=&quot;endArrow=classic;html=1;rounded=0;fillColor=#dae8fc;strokeColor=#6c8ebf;strokeWidth=3;&quot; edge=&quot;1&quot; source=&quot;2&quot; target=&quot;5&quot; parent=&quot;1&quot;&gt;&#10;          &lt;mxGeometry width=&quot;50&quot; height=&quot;50&quot; relative=&quot;1&quot; as=&quot;geometry&quot;&gt;&#10;            &lt;mxPoint x=&quot;400&quot; y=&quot;420&quot; as=&quot;sourcePoint&quot; /&gt;&#10;            &lt;mxPoint x=&quot;450&quot; y=&quot;370&quot; as=&quot;targetPoint&quot; /&gt;&#10;          &lt;/mxGeometry&gt;&#10;        &lt;/mxCell&gt;&#10;        &lt;mxCell id=&quot;9&quot; value=&quot;&quot; style=&quot;sketch=0;html=1;aspect=fixed;strokeColor=none;shadow=0;align=center;fillColor=#2D9C5E;verticalAlign=top;labelPosition=center;verticalLabelPosition=bottom;shape=mxgraph.gcp2.check&quot; vertex=&quot;1&quot; parent=&quot;1&quot;&gt;&#10;          &lt;mxGeometry x=&quot;402.25&quot; y=&quot;240&quot; width=&quot;37.5&quot; height=&quot;30&quot; as=&quot;geometry&quot; /&gt;&#10;        &lt;/mxCell&gt;&#10;        &lt;mxCell id=&quot;10&quot; value=&quot;&quot; style=&quot;sketch=0;html=1;aspect=fixed;strokeColor=none;shadow=0;align=center;fillColor=#2D9C5E;verticalAlign=top;labelPosition=center;verticalLabelPosition=bottom;shape=mxgraph.gcp2.check&quot; vertex=&quot;1&quot; parent=&quot;1&quot;&gt;&#10;          &lt;mxGeometry x=&quot;211.25&quot; y=&quot;365&quot; width=&quot;37.5&quot; height=&quot;30&quot; as=&quot;geometry&quot; /&gt;&#10;        &lt;/mxCell&gt;&#10;        &lt;mxCell id=&quot;11&quot; value=&quot;&quot; style=&quot;verticalLabelPosition=bottom;verticalAlign=top;html=1;shape=mxgraph.basic.x;fillColor=#f8cecc;strokeColor=#b85450;&quot; vertex=&quot;1&quot; parent=&quot;1&quot;&gt;&#10;          &lt;mxGeometry x=&quot;409.75&quot; y=&quot;490&quot; width=&quot;30&quot; height=&quot;30&quot; as=&quot;geometry&quot; /&gt;&#10;        &lt;/mxCell&gt;&#10;        &lt;mxCell id=&quot;12&quot; value=&quot;&quot; style=&quot;verticalLabelPosition=bottom;verticalAlign=top;html=1;shape=mxgraph.basic.x;fillColor=#f8cecc;strokeColor=#b85450;&quot; vertex=&quot;1&quot; parent=&quot;1&quot;&gt;&#10;          &lt;mxGeometry x=&quot;595&quot; y=&quot;365&quot; width=&quot;30&quot; height=&quot;30&quot; as=&quot;geometry&quot; /&gt;&#10;        &lt;/mxCell&gt;&#10;      &lt;/root&gt;&#10;    &lt;/mxGraphModel&gt;&#10;  &lt;/diagram&gt;&#10;&lt;/mxfile&gt;&#10;" style="background-color: rgb(255, 255, 255);"><defs/><rect fill="#ffffff" width="100%" height="100%" x="0" y="0"/><g><g><rect x="161" y="151" width="142" height="15" fill="#404040" stroke="#0b0b0b" stroke-width="0.17" pointer-events="all"/><path d="M 163.39 160.38 L 163.39 162.89 L 164.25 162.89 L 164.25 163.68 L 166.36 163.68 L 166.36 162.89 L 167.16 162.89 L 167.16 160.38 L 163.39 160.38 Z" fill="#1a1a1a" stroke="#333" stroke-width="0.17" stroke-miterlimit="10" pointer-events="all"/><rect x="161" y="151" width="0" height="0" fill="none" stroke="rgb(0, 0, 0)" pointer-events="all"/><rect x="161.56" y="151.28" width="5.81" height="3.23" fill="#333" stroke="#282828" stroke-width="0.13" pointer-events="all"/><rect x="168.43" y="151.64" width="5.81" height="3.5" fill="#4d4d4d" stroke="#808080" stroke-width="0.1" pointer-events="all"/><path d="M 164.33 156.76 L 167.28 156.76 L 167.28 157.51 L 164.33 157.51 L 164.33 156.76 Z M 164.33 155.53 L 167.28 155.53 L 167.28 156.27 L 164.33 156.27 L 164.33 155.53 Z" fill="#bfcfbe" stroke="#282828" stroke-width="0.13" stroke-miterlimit="10" pointer-events="all"/><rect x="161" y="151" width="0" height="0" fill="none" stroke="rgb(0, 0, 0)" pointer-events="all"/><path d="M 174.97 154.42 L 203.02 154.42 L 203.02 162.98 L 174.97 162.98 L 174.97 154.42 Z M 203.44 154.42 L 231.49 154.42 L 231.49 162.98 L 203.44 162.98 L 203.44 154.42 Z M 231.91 154.42 L 259.96 154.42 L 259.96 162.98 L 231.91 162.98 L 231.91 154.42 Z M 260.38 154.42 L 288.43 154.42 L 288.43 162.98 L 260.38 162.98 L 260.38 154.42 Z" fill="#f2f2f2" stroke="none" pointer-events="all"/><path d="M 286.79 162.57 L 287.65 162.57 L 287.65 162.08 L 286.79 162.08 L 286.79 162.57 Z M 283.6 162.57 L 284.45 162.57 L 284.45 162.08 L 283.6 162.08 L 283.6 162.57 Z M 282.31 162.57 L 283.16 162.57 L 283.16 162.08 L 282.31 162.08 L 282.31 162.57 Z M 279.11 162.57 L 279.96 162.57 L 279.96 162.08 L 279.11 162.08 L 279.11 162.57 Z M 277.82 162.57 L 278.68 162.57 L 278.68 162.08 L 277.82 162.08 L 277.82 162.57 Z M 274.62 162.57 L 275.48 162.57 L 275.48 162.08 L 274.62 162.08 L 274.62 162.57 Z M 273.33 162.57 L 274.19 162.57 L 274.19 162.08 L 273.33 162.08 L 273.33 162.57 Z M 270.13 162.57 L 270.99 162.57 L 270.99 162.08 L 270.13 162.08 L 270.13 162.57 Z M 268.84 162.57 L 269.7 162.57 L 269.7 162.08 L 268.84 162.08 L 268.84 162.57 Z M 265.65 162.57 L 266.5 162.57 L 266.5 162.08 L 265.65 162.08 L 265.65 162.57 Z M 264.36 162.57 L 265.21 162.57 L 265.21 162.08 L 264.36 162.08 L 264.36 162.57 Z M 261.16 162.57 L 262.01 162.57 L 262.01 162.08 L 261.16 162.08 L 261.16 162.57 Z M 258.33 162.57 L 259.18 162.57 L 259.18 162.08 L 258.33 162.08 L 258.33 162.57 Z M 255.13 162.57 L 255.98 162.57 L 255.98 162.08 L 255.13 162.08 L 255.13 162.57 Z M 253.84 162.57 L 254.7 162.57 L 254.7 162.08 L 253.84 162.08 L 253.84 162.57 Z M 250.64 162.57 L 251.5 162.57 L 251.5 162.08 L 250.64 162.08 L 250.64 162.57 Z M 249.35 162.57 L 250.21 162.57 L 250.21 162.08 L 249.35 162.08 L 249.35 162.57 Z M 246.15 162.57 L 247.01 162.57 L 247.01 162.08 L 246.15 162.08 L 246.15 162.57 Z M 244.86 162.57 L 245.72 162.57 L 245.72 162.08 L 244.86 162.08 L 244.86 162.57 Z M 241.66 162.57 L 242.52 162.57 L 242.52 162.08 L 241.66 162.08 L 241.66 162.57 Z M 240.38 162.57 L 241.23 162.57 L 241.23 162.08 L 240.38 162.08 L 240.38 162.57 Z M 237.18 162.57 L 238.03 162.57 L 238.03 162.08 L 237.18 162.08 L 237.18 162.57 Z M 235.89 162.57 L 236.74 162.57 L 236.74 162.08 L 235.89 162.08 L 235.89 162.57 Z M 232.69 162.57 L 233.55 162.57 L 233.55 162.08 L 232.69 162.08 L 232.69 162.57 Z M 229.86 162.57 L 230.71 162.57 L 230.71 162.08 L 229.86 162.08 L 229.86 162.57 Z M 226.66 162.57 L 227.51 162.57 L 227.51 162.08 L 226.66 162.08 L 226.66 162.57 Z M 225.37 162.57 L 226.23 162.57 L 226.23 162.08 L 225.37 162.08 L 225.37 162.57 Z M 222.17 162.57 L 223.03 162.57 L 223.03 162.08 L 222.17 162.08 L 222.17 162.57 Z M 220.88 162.57 L 221.74 162.57 L 221.74 162.08 L 220.88 162.08 L 220.88 162.57 Z M 217.68 162.57 L 218.54 162.57 L 218.54 162.08 L 217.68 162.08 L 217.68 162.57 Z M 216.39 162.57 L 217.25 162.57 L 217.25 162.08 L 216.39 162.08 L 216.39 162.57 Z M 213.2 162.57 L 214.05 162.57 L 214.05 162.08 L 213.2 162.08 L 213.2 162.57 Z M 211.91 162.57 L 212.76 162.57 L 212.76 162.08 L 211.91 162.08 L 211.91 162.57 Z M 208.71 162.57 L 209.56 162.57 L 209.56 162.08 L 208.71 162.08 L 208.71 162.57 Z M 207.42 162.57 L 208.28 162.57 L 208.28 162.08 L 207.42 162.08 L 207.42 162.57 Z M 204.22 162.57 L 205.08 162.57 L 205.08 162.08 L 204.22 162.08 L 204.22 162.57 Z M 201.39 162.57 L 202.24 162.57 L 202.24 162.08 L 201.39 162.08 L 201.39 162.57 Z M 198.19 162.57 L 199.05 162.57 L 199.05 162.08 L 198.19 162.08 L 198.19 162.57 Z M 196.9 162.57 L 197.76 162.57 L 197.76 162.08 L 196.9 162.08 L 196.9 162.57 Z M 193.7 162.57 L 194.56 162.57 L 194.56 162.08 L 193.7 162.08 L 193.7 162.57 Z M 192.41 162.57 L 193.27 162.57 L 193.27 162.08 L 192.41 162.08 L 192.41 162.57 Z M 189.21 162.57 L 190.07 162.57 L 190.07 162.08 L 189.21 162.08 L 189.21 162.57 Z M 187.93 162.57 L 188.78 162.57 L 188.78 162.08 L 187.93 162.08 L 187.93 162.57 Z M 184.73 162.57 L 185.58 162.57 L 185.58 162.08 L 184.73 162.08 L 184.73 162.57 Z M 183.44 162.57 L 184.29 162.57 L 184.29 162.08 L 183.44 162.08 L 183.44 162.57 Z M 180.24 162.57 L 181.1 162.57 L 181.1 162.08 L 180.24 162.08 L 180.24 162.57 Z M 178.95 162.57 L 179.81 162.57 L 179.81 162.08 L 178.95 162.08 L 178.95 162.57 Z M 175.75 162.57 L 176.61 162.57 L 176.61 162.08 L 175.75 162.08 L 175.75 162.57 Z" fill="#95ac91" stroke="#585958" stroke-width="0.1" stroke-miterlimit="10" pointer-events="all"/><rect x="161" y="151" width="0" height="0" fill="none" stroke="rgb(0, 0, 0)" pointer-events="all"/><path d="M 176.78 154.55 L 176.78 155.48 L 175.89 155.48 L 175.89 157.82 L 179.67 157.82 L 179.67 155.48 L 178.78 155.48 L 178.78 154.55 L 176.78 154.55 Z M 181.27 154.55 L 181.27 155.48 L 180.38 155.48 L 180.38 157.82 L 184.16 157.82 L 184.16 155.48 L 183.26 155.48 L 183.26 154.55 L 181.27 154.55 Z M 185.76 154.55 L 185.76 155.48 L 184.86 155.48 L 184.86 157.82 L 188.65 157.82 L 188.65 155.48 L 187.75 155.48 L 187.75 154.55 L 185.76 154.55 Z M 190.24 154.55 L 190.24 155.48 L 189.35 155.48 L 189.35 157.82 L 193.13 157.82 L 193.13 155.48 L 192.24 155.48 L 192.24 154.55 L 190.24 154.55 Z M 194.73 154.55 L 194.73 155.48 L 193.84 155.48 L 193.84 157.82 L 197.62 157.82 L 197.62 155.48 L 196.73 155.48 L 196.73 154.55 L 194.73 154.55 Z M 199.22 154.55 L 199.22 155.48 L 198.33 155.48 L 198.33 157.82 L 202.11 157.82 L 202.11 155.48 L 201.21 155.48 L 201.21 154.55 L 199.22 154.55 Z M 205.25 154.55 L 205.25 155.48 L 204.36 155.48 L 204.36 157.82 L 208.14 157.82 L 208.14 155.48 L 207.24 155.48 L 207.24 154.55 L 205.25 154.55 Z M 209.74 154.55 L 209.74 155.48 L 208.84 155.48 L 208.84 157.82 L 212.63 157.82 L 212.63 155.48 L 211.73 155.48 L 211.73 154.55 L 209.74 154.55 Z M 214.23 154.55 L 214.23 155.48 L 213.33 155.48 L 213.33 157.82 L 217.11 157.82 L 217.11 155.48 L 216.22 155.48 L 216.22 154.55 L 214.23 154.55 Z M 218.71 154.55 L 218.71 155.48 L 217.82 155.48 L 217.82 157.82 L 221.6 157.82 L 221.6 155.48 L 220.71 155.48 L 220.71 154.55 L 218.71 154.55 Z M 223.2 154.55 L 223.2 155.48 L 222.31 155.48 L 222.31 157.82 L 226.09 157.82 L 226.09 155.48 L 225.2 155.48 L 225.2 154.55 L 223.2 154.55 Z M 227.69 154.55 L 227.69 155.48 L 226.79 155.48 L 226.79 157.82 L 230.58 157.82 L 230.58 155.48 L 229.68 155.48 L 229.68 154.55 L 227.69 154.55 Z M 233.72 154.55 L 233.72 155.48 L 232.83 155.48 L 232.83 157.82 L 236.61 157.82 L 236.61 155.48 L 235.71 155.48 L 235.71 154.55 L 233.72 154.55 Z M 238.21 154.55 L 238.21 155.48 L 237.31 155.48 L 237.31 157.82 L 241.1 157.82 L 241.1 155.48 L 240.2 155.48 L 240.2 154.55 L 238.21 154.55 Z M 242.69 154.55 L 242.69 155.48 L 241.8 155.48 L 241.8 157.82 L 245.58 157.82 L 245.58 155.48 L 244.69 155.48 L 244.69 154.55 L 242.69 154.55 Z M 247.18 154.55 L 247.18 155.48 L 246.29 155.48 L 246.29 157.82 L 250.07 157.82 L 250.07 155.48 L 249.18 155.48 L 249.18 154.55 L 247.18 154.55 Z M 251.67 154.55 L 251.67 155.48 L 250.78 155.48 L 250.78 157.82 L 254.56 157.82 L 254.56 155.48 L 253.66 155.48 L 253.66 154.55 L 251.67 154.55 Z M 256.16 154.55 L 256.16 155.48 L 255.26 155.48 L 255.26 157.82 L 259.05 157.82 L 259.05 155.48 L 258.15 155.48 L 258.15 154.55 L 256.16 154.55 Z M 262.19 154.55 L 262.19 155.48 L 261.29 155.48 L 261.29 157.82 L 265.08 157.82 L 265.08 155.48 L 264.18 155.48 L 264.18 154.55 L 262.19 154.55 Z M 266.68 154.55 L 266.68 155.48 L 265.78 155.48 L 265.78 157.82 L 269.56 157.82 L 269.56 155.48 L 268.67 155.48 L 268.67 154.55 L 266.68 154.55 Z M 271.16 154.55 L 271.16 155.48 L 270.27 155.48 L 270.27 157.82 L 274.05 157.82 L 274.05 155.48 L 273.16 155.48 L 273.16 154.55 L 271.16 154.55 Z M 275.65 154.55 L 275.65 155.48 L 274.76 155.48 L 274.76 157.82 L 278.54 157.82 L 278.54 155.48 L 277.65 155.48 L 277.65 154.55 L 275.65 154.55 Z M 280.14 154.55 L 280.14 155.48 L 279.24 155.48 L 279.24 157.82 L 283.03 157.82 L 283.03 155.48 L 282.13 155.48 L 282.13 154.55 L 280.14 154.55 Z M 284.63 154.55 L 284.63 155.48 L 283.73 155.48 L 283.73 157.82 L 287.51 157.82 L 287.51 155.48 L 286.62 155.48 L 286.62 154.55 L 284.63 154.55 Z M 176.78 162.85 L 176.78 161.92 L 175.89 161.92 L 175.89 159.59 L 179.67 159.59 L 179.67 161.92 L 178.78 161.92 L 178.78 162.85 L 176.78 162.85 Z M 181.27 162.85 L 181.27 161.92 L 180.38 161.92 L 180.38 159.59 L 184.16 159.59 L 184.16 161.92 L 183.26 161.92 L 183.26 162.85 L 181.27 162.85 Z M 185.76 162.85 L 185.76 161.92 L 184.86 161.92 L 184.86 159.59 L 188.65 159.59 L 188.65 161.92 L 187.75 161.92 L 187.75 162.85 L 185.76 162.85 Z M 190.24 162.85 L 190.24 161.92 L 189.35 161.92 L 189.35 159.59 L 193.13 159.59 L 193.13 161.92 L 192.24 161.92 L 192.24 162.85 L 190.24 162.85 Z M 194.73 162.85 L 194.73 161.92 L 193.84 161.92 L 193.84 159.59 L 197.62 159.59 L 197.62 161.92 L 196.73 161.92 L 196.73 162.85 L 194.73 162.85 Z M 199.22 162.85 L 199.22 161.92 L 198.33 161.92 L 198.33 159.59 L 202.11 159.59 L 202.11 161.92 L 201.21 161.92 L 201.21 162.85 L 199.22 162.85 Z M 205.25 162.85 L 205.25 161.92 L 204.36 161.92 L 204.36 159.59 L 208.14 159.59 L 208.14 161.92 L 207.24 161.92 L 207.24 162.85 L 205.25 162.85 Z M 209.74 162.85 L 209.74 161.92 L 208.84 161.92 L 208.84 159.59 L 212.63 159.59 L 212.63 161.92 L 211.73 161.92 L 211.73 162.85 L 209.74 162.85 Z M 214.23 162.85 L 214.23 161.92 L 213.33 161.92 L 213.33 159.59 L 217.11 159.59 L 217.11 161.92 L 216.22 161.92 L 216.22 162.85 L 214.23 162.85 Z M 218.71 162.85 L 218.71 161.92 L 217.82 161.92 L 217.82 159.59 L 221.6 159.59 L 221.6 161.92 L 220.71 161.92 L 220.71 162.85 L 218.71 162.85 Z M 223.2 162.85 L 223.2 161.92 L 222.31 161.92 L 222.31 159.59 L 226.09 159.59 L 226.09 161.92 L 225.2 161.92 L 225.2 162.85 L 223.2 162.85 Z M 227.69 162.85 L 227.69 161.92 L 226.79 161.92 L 226.79 159.59 L 230.58 159.59 L 230.58 161.92 L 229.68 161.92 L 229.68 162.85 L 227.69 162.85 Z M 233.72 162.85 L 233.72 161.92 L 232.83 161.92 L 232.83 159.59 L 236.61 159.59 L 236.61 161.92 L 235.71 161.92 L 235.71 162.85 L 233.72 162.85 Z M 238.21 162.85 L 238.21 161.92 L 237.31 161.92 L 237.31 159.59 L 241.1 159.59 L 241.1 161.92 L 240.2 161.92 L 240.2 162.85 L 238.21 162.85 Z M 242.69 162.85 L 242.69 161.92 L 241.8 161.92 L 241.8 159.59 L 245.58 159.59 L 245.58 161.92 L 244.69 161.92 L 244.69 162.85 L 242.69 162.85 Z M 247.18 162.85 L 247.18 161.92 L 246.29 161.92 L 246.29 159.59 L 250.07 159.59 L 250.07 161.92 L 249.18 161.92 L 249.18 162.85 L 247.18 162.85 Z M 251.67 162.85 L 251.67 161.92 L 250.78 161.92 L 250.78 159.59 L 254.56 159.59 L 254.56 161.92 L 253.66 161.92 L 253.66 162.85 L 251.67 162.85 Z M 256.16 162.85 L 256.16 161.92 L 255.26 161.92 L 255.26 159.59 L 259.05 159.59 L 259.05 161.92 L 258.15 161.92 L 258.15 162.85 L 256.16 162.85 Z M 262.19 162.85 L 262.19 161.92 L 261.29 161.92 L 261.29 159.59 L 265.08 159.59 L 265.08 161.92 L 264.18 161.92 L 264.18 162.85 L 262.19 162.85 Z M 266.68 162.85 L 266.68 161.92 L 265.78 161.92 L 265.78 159.59 L 269.56 159.59 L 269.56 161.92 L 268.67 161.92 L 268.67 162.85 L 266.68 162.85 Z M 271.16 162.85 L 271.16 161.92 L 270.27 161.92 L 270.27 159.59 L 274.05 159.59 L 274.05 161.92 L 273.16 161.92 L 273.16 162.85 L 271.16 162.85 Z M 275.65 162.85 L 275.65 161.92 L 274.76 161.92 L 274.76 159.59 L 278.54 159.59 L 278.54 161.92 L 277.65 161.92 L 277.65 162.85 L 275.65 162.85 Z M 280.14 162.85 L 280.14 161.92 L 279.24 161.92 L 279.24 159.59 L 283.03 159.59 L 283.03 161.92 L 282.13 161.92 L 282.13 162.85 L 280.14 162.85 Z M 284.63 162.85 L 284.63 161.92 L 283.73 161.92 L 283.73 159.59 L 287.51 159.59 L 287.51 161.92 L 286.62 161.92 L 286.62 162.85 L 284.63 162.85 Z" fill="#333" stroke="none" pointer-events="all"/><rect x="171.36" y="155.77" width="2.28" height="0.65" fill="none" stroke="#808080" stroke-width="0.13" pointer-events="all"/><rect x="161" y="151" width="0" height="0" fill="none" stroke="rgb(0, 0, 0)" pointer-events="all"/><rect x="289.42" y="154.37" width="9.44" height="8.54" fill="#e6e6e6" stroke="none" pointer-events="all"/><path d="M 294.26 159.8 L 298.63 159.8 L 298.63 162.71 L 294.26 162.71 L 294.26 159.8 Z M 289.65 159.8 L 294.03 159.8 L 294.03 162.71 L 289.65 162.71 L 289.65 159.8 Z M 294.26 154.56 L 298.63 154.56 L 298.63 157.47 L 294.26 157.47 L 294.26 154.56 Z M 289.65 154.56 L 294.03 154.56 L 294.03 157.47 L 289.65 157.47 L 289.65 154.56 Z" fill="#262626" stroke="none" pointer-events="all"/><rect x="223.44" y="151.56" width="16.42" height="0.89" fill="#f8f84b" stroke="none" pointer-events="all"/></g><g><rect x="192" y="1" width="80" height="46.06" fill="#cccccc" stroke="#6881b3" stroke-width="2" pointer-events="all"/><path d="M 216.5 59.04 L 247.4 59.04 L 253.5 66 L 210.5 66 Z" fill="#cccccc" stroke="#6881b3" stroke-width="2" stroke-linejoin="round" stroke-miterlimit="10" pointer-events="all"/><rect x="222" y="47.06" width="20" height="15.35" fill="#cccccc" stroke="#6881b3" stroke-width="2" pointer-events="all"/><rect x="195" y="4.07" width="73" height="39.92" fill="#ffffff" stroke="none" pointer-events="all"/></g><g><rect x="381" y="126" width="80" height="46.06" fill="#cccccc" stroke="#6881b3" stroke-width="2" pointer-events="all"/><path d="M 405.5 184.04 L 436.4 184.04 L 442.5 191 L 399.5 191 Z" fill="#cccccc" stroke="#6881b3" stroke-width="2" stroke-linejoin="round" stroke-miterlimit="10" pointer-events="all"/><rect x="411" y="172.06" width="20" height="15.35" fill="#cccccc" stroke="#6881b3" stroke-width="2" pointer-events="all"/><rect x="384" y="129.07" width="73" height="39.92" fill="#ffffff" stroke="none" pointer-events="all"/></g><g><rect x="1" y="126" width="80" height="46.06" fill="#cccccc" stroke="#6881b3" stroke-width="2" pointer-events="all"/><path d="M 25.5 184.04 L 56.4 184.04 L 62.5 191 L 19.5 191 Z" fill="#cccccc" stroke="#6881b3" stroke-width="2" stroke-linejoin="round" stroke-miterlimit="10" pointer-events="all"/><rect x="31" y="172.06" width="20" height="15.35" fill="#cccccc" stroke="#6881b3" stroke-width="2" pointer-events="all"/><rect x="4" y="129.07" width="73" height="39.92" fill="#ffffff" stroke="none" pointer-events="all"/></g><g><rect x="196" y="251" width="80" height="46.06" fill="#cccccc" stroke="#6881b3" stroke-width="2" pointer-events="all"/><path d="M 220.5 309.04 L 251.4 309.04 L 257.5 316 L 214.5 316 Z" fill="#cccccc" stroke="#6881b3" stroke-width="2" stroke-linejoin="round" stroke-miterlimit="10" pointer-events="all"/><rect x="226" y="297.06" width="20" height="15.35" fill="#cccccc" stroke="#6881b3" stroke-width="2" pointer-events="all"/><rect x="199" y="254.07" width="73" height="39.92" fill="#ffffff" stroke="none" pointer-events="all"/></g><g><path d="M 232 66 L 232 140.9" fill="none" stroke="#6c8ebf" stroke-width="3" stroke-miterlimit="10" pointer-events="stroke"/><path d="M 232 147.65 L 227.5 138.65 L 232 140.9 L 236.5 138.65 Z" fill="#6c8ebf" stroke="#6c8ebf" stroke-width="3" stroke-miterlimit="10" pointer-events="all"/></g><g><path d="M 161 158.5 L 91.1 158.5" fill="none" stroke="#6c8ebf" stroke-width="3" stroke-miterlimit="10" pointer-events="stroke"/><path d="M 84.35 158.5 L 93.35 154 L 91.1 158.5 L 93.35 163 Z" fill="#6c8ebf" stroke="#6c8ebf" stroke-width="3" stroke-miterlimit="10" pointer-events="all"/></g><g><path d="M 227.86 41 L 213.25 26.38 L 219.09 20.56 L 226.58 28.07 C 230.13 24.5 233.79 20.92 238.48 17.26 C 243.22 13.58 248.28 11 250.75 11.12 C 246.07 15.06 241.41 19.96 237.3 25.33 C 232.96 30.86 229.85 36.23 227.86 41 Z" fill="#2d9c5e" stroke="none" pointer-events="all"/></g><g><path d="M 36.86 166 L 22.25 151.38 L 28.09 145.56 L 35.58 153.07 C 39.13 149.5 42.79 145.92 47.48 142.26 C 52.22 138.58 57.28 136 59.75 136.12 C 55.07 140.06 50.41 144.96 46.3 150.33 C 41.96 155.86 38.85 161.23 36.86 166 Z" fill="#2d9c5e" stroke="none" pointer-events="all"/></g><g><path d="M 220.75 261 L 229.5 261 L 235.75 269.88 L 242 261 L 250.75 261 L 240.13 276 L 250.75 291 L 242 291 L 235.75 282.12 L 229.5 291 L 220.75 291 L 230.75 276 Z" fill="#f8cecc" stroke="#b85450" stroke-miterlimit="10" pointer-events="all"/></g><g><path d="M 406 136 L 414.75 136 L 421 144.88 L 427.25 136 L 436 136 L 425.38 151 L 436 166 L 427.25 166 L 421 157.12 L 414.75 166 L 406 166 L 416 151 Z" fill="#f8cecc" stroke="#b85450" stroke-miterlimit="10" pointer-events="all"/></g></g></svg>